<svg width="80" height="30" viewBox="0 0 80 30" fill="none" xmlns="http://www.w3.org/2000/svg">
<path d="M5.952 9.992C9.80267 9.992 11.728 11.8267 11.728 15.496C11.728 19.1653 9.80267 21 5.952 21H1.184V9.992H5.952ZM4.72 18.36H5.888C7.37067 18.36 8.112 17.5653 8.112 15.976V15.016C8.112 13.4267 7.37067 12.632 5.888 12.632H4.72V18.36ZM17.5891 12.36C18.8798 12.36 19.9305 12.5787 20.7411 13.016C21.5518 13.4427 21.9571 14.1413 21.9571 15.112V18.408C21.9571 18.5893 21.9998 18.7387 22.0851 18.856C22.1705 18.9733 22.2985 19.032 22.4691 19.032H23.0451V20.872C23.0131 20.8933 22.9278 20.9307 22.7891 20.984C22.6611 21.0267 22.4745 21.0693 22.2291 21.112C21.9838 21.1653 21.7011 21.192 21.3811 21.192C20.7625 21.192 20.2505 21.1013 19.8451 20.92C19.4505 20.728 19.1785 20.4667 19.0291 20.136C18.6238 20.456 18.1705 20.712 17.6691 20.904C17.1678 21.096 16.5811 21.192 15.9091 21.192C13.9251 21.192 12.9331 20.4027 12.9331 18.824C12.9331 18.0027 13.1518 17.3787 13.5891 16.952C14.0371 16.5147 14.6771 16.216 15.5091 16.056C16.3411 15.896 17.4291 15.816 18.7731 15.816V15.4C18.7731 15.0693 18.6558 14.8187 18.4211 14.648C18.1971 14.4773 17.9038 14.392 17.5411 14.392C17.2105 14.392 16.9225 14.4507 16.6771 14.568C16.4425 14.6853 16.3251 14.872 16.3251 15.128V15.192H13.1891C13.1785 15.1387 13.1731 15.064 13.1731 14.968C13.1731 14.168 13.5518 13.5333 14.3091 13.064C15.0771 12.5947 16.1705 12.36 17.5891 12.36ZM18.7731 17.32C17.8665 17.32 17.1945 17.4213 16.7571 17.624C16.3305 17.816 16.1171 18.0773 16.1171 18.408C16.1171 18.9413 16.4798 19.208 17.2051 19.208C17.6211 19.208 17.9838 19.096 18.2931 18.872C18.6131 18.648 18.7731 18.3707 18.7731 18.04V17.32ZM29.4514 12.552V14.712H27.6594V17.928C27.6594 18.312 27.7234 18.5947 27.8514 18.776C27.9794 18.9467 28.214 19.032 28.5554 19.032H29.4514V20.904C29.1954 20.9893 28.8647 21.0587 28.4594 21.112C28.054 21.1653 27.702 21.192 27.4034 21.192C26.4647 21.192 25.7394 21.0213 25.2274 20.68C24.726 20.3387 24.4754 19.7573 24.4754 18.936V14.712H23.2914V12.552H24.6034L25.2914 9.992H27.6594V12.552H29.4514ZM35.2968 12.36C36.8434 12.36 38.0221 12.7227 38.8328 13.448C39.6541 14.1733 40.0648 15.2827 40.0648 16.776V17.32H33.7288C33.7288 17.928 33.8621 18.3867 34.1288 18.696C34.4061 19.0053 34.8381 19.16 35.4248 19.16C35.9581 19.16 36.3474 19.048 36.5928 18.824C36.8488 18.6 36.9768 18.3013 36.9768 17.928H40.0648C40.0648 18.952 39.6754 19.752 38.8968 20.328C38.1181 20.904 36.9821 21.192 35.4888 21.192C33.9208 21.192 32.7048 20.8293 31.8408 20.104C30.9768 19.368 30.5448 18.2587 30.5448 16.776C30.5448 15.3253 30.9661 14.2267 31.8088 13.48C32.6514 12.7333 33.8141 12.36 35.2968 12.36ZM35.4248 14.392C34.4221 14.392 33.8621 14.8667 33.7448 15.816H36.8488C36.8488 15.3787 36.7208 15.032 36.4648 14.776C36.2194 14.52 35.8728 14.392 35.4248 14.392Z" fill="#AAAAAA"/>
</svg>
