<svg width="80" height="30" viewBox="0 0 80 30" fill="none" xmlns="http://www.w3.org/2000/svg">
<path d="M9.056 21L4.432 15.656V21H1.184V9.992H4.272L8.896 15.416V9.992H12.144V21H9.056ZM18.4641 12.36C19.7548 12.36 20.8055 12.5787 21.6161 13.016C22.4268 13.4427 22.8321 14.1413 22.8321 15.112V18.408C22.8321 18.5893 22.8748 18.7387 22.9601 18.856C23.0455 18.9733 23.1735 19.032 23.3441 19.032H23.9201V20.872C23.8881 20.8933 23.8028 20.9307 23.6641 20.984C23.5361 21.0267 23.3495 21.0693 23.1041 21.112C22.8588 21.1653 22.5761 21.192 22.2561 21.192C21.6375 21.192 21.1255 21.1013 20.7201 20.92C20.3255 20.728 20.0535 20.4667 19.9041 20.136C19.4988 20.456 19.0455 20.712 18.5441 20.904C18.0428 21.096 17.4561 21.192 16.7841 21.192C14.8001 21.192 13.8081 20.4027 13.8081 18.824C13.8081 18.0027 14.0268 17.3787 14.4641 16.952C14.9121 16.5147 15.5521 16.216 16.3841 16.056C17.2161 15.896 18.3041 15.816 19.6481 15.816V15.4C19.6481 15.0693 19.5308 14.8187 19.2961 14.648C19.0721 14.4773 18.7788 14.392 18.4161 14.392C18.0855 14.392 17.7975 14.4507 17.5521 14.568C17.3175 14.6853 17.2001 14.872 17.2001 15.128V15.192H14.0641C14.0535 15.1387 14.0481 15.064 14.0481 14.968C14.0481 14.168 14.4268 13.5333 15.1841 13.064C15.9521 12.5947 17.0455 12.36 18.4641 12.36ZM19.6481 17.32C18.7415 17.32 18.0695 17.4213 17.6321 17.624C17.2055 17.816 16.9921 18.0773 16.9921 18.408C16.9921 18.9413 17.3548 19.208 18.0801 19.208C18.4961 19.208 18.8588 19.096 19.1681 18.872C19.4881 18.648 19.6481 18.3707 19.6481 18.04V17.32ZM36.176 12.36C37.136 12.36 37.856 12.6373 38.336 13.192C38.816 13.736 39.056 14.5147 39.056 15.528V21H35.872V15.912C35.872 15.5493 35.7813 15.2613 35.6 15.048C35.4293 14.824 35.184 14.712 34.864 14.712C34.4907 14.712 34.1867 14.84 33.952 15.096C33.7173 15.352 33.6 15.6667 33.6 16.04V21H30.416V15.912C30.416 15.5493 30.3253 15.2613 30.144 15.048C29.9733 14.824 29.728 14.712 29.408 14.712C29.0347 14.712 28.7307 14.84 28.496 15.096C28.2613 15.352 28.144 15.6667 28.144 16.04V21H24.96V12.552H27.568L27.776 13.816C28.096 13.368 28.5173 13.016 29.04 12.76C29.5733 12.4933 30.1333 12.36 30.72 12.36C31.9893 12.36 32.8427 12.8453 33.28 13.816C33.6107 13.368 34.032 13.016 34.544 12.76C35.0667 12.4933 35.6107 12.36 36.176 12.36ZM45.328 12.36C46.8747 12.36 48.0533 12.7227 48.864 13.448C49.6853 14.1733 50.096 15.2827 50.096 16.776V17.32H43.76C43.76 17.928 43.8933 18.3867 44.16 18.696C44.4373 19.0053 44.8693 19.16 45.456 19.16C45.9893 19.16 46.3787 19.048 46.624 18.824C46.88 18.6 47.008 18.3013 47.008 17.928H50.096C50.096 18.952 49.7067 19.752 48.928 20.328C48.1493 20.904 47.0133 21.192 45.52 21.192C43.952 21.192 42.736 20.8293 41.872 20.104C41.008 19.368 40.576 18.2587 40.576 16.776C40.576 15.3253 40.9973 14.2267 41.84 13.48C42.6827 12.7333 43.8453 12.36 45.328 12.36ZM45.456 14.392C44.4533 14.392 43.8933 14.8667 43.776 15.816H46.88C46.88 15.3787 46.752 15.032 46.496 14.776C46.2507 14.52 45.904 14.392 45.456 14.392Z" fill="#AAAAAA"/>
</svg>
