<svg width="35" height="30" viewBox="0 0 35 30" fill="none" xmlns="http://www.w3.org/2000/svg">
<path d="M16.848 9.8C18.0107 9.8 18.928 10.072 19.6 10.616C20.2827 11.16 20.624 11.9493 20.624 12.984C20.624 14.0187 20.2827 14.808 19.6 15.352C18.928 15.896 18.0107 16.168 16.848 16.168C15.6747 16.168 14.752 15.9013 14.08 15.368C13.408 14.824 13.072 14.0293 13.072 12.984C13.072 11.9387 13.408 11.1493 14.08 10.616C14.752 10.072 15.6747 9.8 16.848 9.8ZM9.056 21L4.432 15.656V21H1.184V9.992H4.272L8.896 15.416V9.992H12.144V21H9.056ZM16.848 11.512C16.016 11.512 15.6 11.992 15.6 12.952V13.032C15.6 13.9813 16.016 14.456 16.848 14.456C17.68 14.456 18.096 13.9813 18.096 13.032V12.952C18.096 11.992 17.68 11.512 16.848 11.512ZM13.456 18.696V16.808H20.24V18.696H13.456Z" fill="#AAAAAA"/>
</svg>
